<svg width="35" height="33" viewBox="0 0 35 33" fill="none" xmlns="http://www.w3.org/2000/svg">
<path fill-rule="evenodd" clip-rule="evenodd" d="M10.5089 0.554563C12.3172 0.475813 12.8938 0.458313 17.5003 0.458313C22.1068 0.458313 22.6834 0.477271 24.4902 0.554563C26.2971 0.631855 27.5304 0.904563 28.6096 1.29977C29.7396 1.70373 30.7648 2.33519 31.6127 3.15185C32.4761 3.95248 33.1421 4.92081 33.5676 5.99123C33.9869 7.01206 34.2737 8.17873 34.3569 9.88498C34.4402 11.5985 34.4587 12.1439 34.4587 16.5C34.4587 20.8575 34.4386 21.4029 34.3569 23.1135C34.2752 24.8198 33.9869 25.9864 33.5676 27.0073C33.1421 28.0778 32.475 29.0478 31.6127 29.8496C30.7648 30.6662 29.7396 31.2962 28.6096 31.6987C27.5304 32.0954 26.2971 32.3666 24.4933 32.4454C22.6834 32.5241 22.1068 32.5416 17.5003 32.5416C12.8938 32.5416 12.3172 32.5227 10.5089 32.4454C8.70512 32.3681 7.47178 32.0954 6.39262 31.6987C5.26091 31.2962 4.23555 30.6651 3.38791 29.8496C2.52516 29.0485 1.85752 28.079 1.43153 27.0087C1.01374 25.9879 0.726992 24.8212 0.643742 23.115C0.560492 21.4014 0.541992 20.856 0.541992 16.5C0.541992 12.1425 0.562034 11.5971 0.643742 9.8879C0.72545 8.17873 1.01374 7.01206 1.43153 5.99123C1.85815 4.92093 2.5263 3.95148 3.38945 3.1504C4.23589 2.33446 5.26022 1.70292 6.39108 1.29977C7.47024 0.904563 8.70358 0.633313 10.5073 0.554563H10.5089ZM24.353 3.44206C22.5647 3.36477 22.0282 3.34873 17.5003 3.34873C12.9724 3.34873 12.4359 3.36477 10.6476 3.44206C8.99341 3.51352 8.09616 3.77456 7.49799 3.99477C6.70712 4.28644 6.14133 4.63206 5.54778 5.19352C4.98514 5.7113 4.55214 6.34164 4.28053 7.03831C4.04774 7.60415 3.77178 8.4529 3.69624 10.0177C3.61453 11.7094 3.59758 12.2169 3.59758 16.5C3.59758 20.7831 3.61453 21.2906 3.69624 22.9823C3.77178 24.5471 4.04774 25.3958 4.28053 25.9616C4.55187 26.6573 4.98508 27.2887 5.54778 27.8064C6.09508 28.3387 6.76262 28.7485 7.49799 29.0052C8.09616 29.2254 8.99341 29.4864 10.6476 29.5579C12.4359 29.6352 12.9709 29.6512 17.5003 29.6512C22.0297 29.6512 22.5647 29.6352 24.353 29.5579C26.0072 29.4864 26.9045 29.2254 27.5027 29.0052C28.2935 28.7135 28.8593 28.3679 29.4529 27.8064C30.0156 27.2887 30.4488 26.6573 30.7201 25.9616C30.9529 25.3958 31.2289 24.5471 31.3044 22.9823C31.3861 21.2906 31.4031 20.7831 31.4031 16.5C31.4031 12.2169 31.3861 11.7094 31.3044 10.0177C31.2289 8.4529 30.9529 7.60415 30.7201 7.03831C30.4118 6.29019 30.0464 5.75498 29.4529 5.19352C28.9055 4.66133 28.2391 4.25174 27.5027 3.99477C26.9045 3.77456 26.0072 3.51352 24.353 3.44206ZM15.3343 21.4452C16.544 21.9215 17.8909 21.9858 19.1452 21.6271C20.3994 21.2683 21.4831 20.5088 22.2111 19.4782C22.9391 18.4477 23.2662 17.21 23.1367 15.9766C23.0072 14.7432 22.429 13.5906 21.5009 12.7156C20.9093 12.1563 20.1939 11.728 19.4063 11.4617C18.6187 11.1953 17.7785 11.0974 16.9461 11.175C16.1137 11.2527 15.3099 11.504 14.5924 11.9108C13.875 12.3176 13.2619 12.8698 12.7972 13.5277C12.3324 14.1855 12.0277 14.9327 11.9049 15.7153C11.782 16.498 11.8442 17.2967 12.0868 18.0539C12.3295 18.8111 12.7466 19.5079 13.3081 20.0944C13.8696 20.6808 14.5616 21.1421 15.3343 21.4452ZM11.3367 10.6696C12.1462 9.9039 13.1071 9.29655 14.1646 8.88217C15.2222 8.4678 16.3556 8.25452 17.5003 8.25452C18.645 8.25452 19.7785 8.4678 20.836 8.88217C21.8936 9.29654 22.8545 9.9039 23.6639 10.6696C24.4733 11.4352 25.1154 12.3442 25.5534 13.3446C25.9915 14.345 26.2169 15.4172 26.2169 16.5C26.2169 17.5828 25.9915 18.655 25.5534 19.6554C25.1154 20.6558 24.4733 21.5647 23.6639 22.3304C22.0292 23.8767 19.8121 24.7454 17.5003 24.7454C15.1885 24.7454 12.9714 23.8767 11.3367 22.3304C9.70206 20.7841 8.7837 18.6868 8.7837 16.5C8.7837 14.3131 9.70206 12.2159 11.3367 10.6696ZM28.1502 9.48248C28.3507 9.3035 28.5113 9.08826 28.6224 8.84952C28.7334 8.61078 28.7927 8.35339 28.7968 8.09259C28.8008 7.83178 28.7494 7.57286 28.6458 7.33116C28.5421 7.08946 28.3882 6.86989 28.1933 6.68545C27.9983 6.50101 27.7662 6.35546 27.5107 6.2574C27.2551 6.15934 26.9814 6.11078 26.7057 6.11458C26.43 6.11838 26.1579 6.17447 25.9055 6.27954C25.6531 6.3846 25.4256 6.53649 25.2364 6.72623C24.8684 7.09523 24.667 7.58536 24.6748 8.09259C24.6826 8.59981 24.8991 9.08418 25.2783 9.44287C25.6575 9.80157 26.1695 10.0064 26.7057 10.0137C27.2419 10.0211 27.7601 9.83057 28.1502 9.48248Z" fill="#FAEBED"/>
</svg>
