<svg width="33" height="33" viewBox="0 0 33 33" fill="none" xmlns="http://www.w3.org/2000/svg">
<path fill-rule="evenodd" clip-rule="evenodd" d="M0.458008 3.13873C0.458008 2.42784 0.740408 1.74607 1.24308 1.24339C1.74576 0.740717 2.42753 0.458317 3.13843 0.458317H29.858C30.2103 0.457741 30.5593 0.526658 30.8849 0.661122C31.2105 0.795586 31.5064 0.992956 31.7557 1.24193C32.0049 1.49091 32.2026 1.7866 32.3374 2.11208C32.4722 2.43756 32.5415 2.78644 32.5413 3.13873V29.8583C32.5417 30.2107 32.4726 30.5597 32.338 30.8853C32.2034 31.2109 32.0059 31.5068 31.7568 31.7561C31.5077 32.0053 31.2119 32.203 30.8863 32.3378C30.5608 32.4726 30.2118 32.5418 29.8595 32.5416H3.13843C2.78631 32.5416 2.43764 32.4723 2.11234 32.3375C1.78704 32.2027 1.49149 32.0051 1.24257 31.7561C0.99365 31.507 0.796242 31.2113 0.661624 30.886C0.527006 30.5606 0.457817 30.2119 0.458008 29.8598V3.13873ZM13.1572 12.6908H17.5016V14.8725C18.1286 13.6183 19.7328 12.4896 22.1434 12.4896C26.7649 12.4896 27.8601 14.9877 27.8601 19.5712V28.0616H23.1832V20.6154C23.1832 18.005 22.5561 16.5321 20.9636 16.5321C18.7543 16.5321 17.8355 18.1202 17.8355 20.6154V28.0616H13.1572V12.6908ZM5.13634 27.8619H9.81468V12.4896H5.13634V27.8604V27.8619ZM10.4841 7.47582C10.4929 7.87638 10.4216 8.27467 10.2744 8.64732C10.1272 9.01996 9.90706 9.35945 9.62689 9.64586C9.34671 9.93228 9.01215 10.1598 8.64284 10.3152C8.27353 10.4706 7.8769 10.5506 7.47624 10.5506C7.07558 10.5506 6.67895 10.4706 6.30964 10.3152C5.94032 10.1598 5.60576 9.93228 5.32559 9.64586C5.04541 9.35945 4.82527 9.01996 4.67808 8.64732C4.53088 8.27467 4.4596 7.87638 4.46843 7.47582C4.48574 6.68956 4.81024 5.94135 5.37243 5.3914C5.93461 4.84146 6.68979 4.53351 7.47624 4.53351C8.26268 4.53351 9.01786 4.84146 9.58005 5.3914C10.1422 5.94135 10.4667 6.68956 10.4841 7.47582Z" fill="#FAEBED"/>
</svg>
